<?xml version="1.0" standalone="no"?>
<!DOCTYPE svg PUBLIC "-//W3C//DTD SVG 20010904//EN"
 "http://www.w3.org/TR/2001/REC-SVG-20010904/DTD/svg10.dtd">
<svg version="1.0" xmlns="http://www.w3.org/2000/svg"
 width="50.000000pt" height="50.000000pt" viewBox="0 0 50.000000 50.000000"
 preserveAspectRatio="xMidYMid meet">

<g transform="translate(0.000000,50.000000) scale(0.100000,-0.100000)"
fill="#000000" stroke="none">
<path d="M280 315 l0 -145 25 0 c24 0 25 3 25 59 0 33 4 62 9 66 6 3 26 -24
46 -60 30 -53 41 -65 61 -65 14 0 23 3 21 7 -2 5 -23 41 -47 81 -48 82 -48 85
16 160 l37 42 -30 0 c-23 0 -36 -10 -68 -52 l-40 -53 -3 53 c-3 48 -5 52 -28
52 l-24 0 0 -145z"/>
</g>
</svg>
